<svg xmlns="http://www.w3.org/2000/svg" width="33" height="33" viewBox="0 0 33 33">
  <g>
    <g>
      <path fill="#465897"
            d="M29.67 6.097c1.008 0 1.981.486 2.606 1.283.66.798.869 1.838.626 2.809l-2.606 10.68c-.347 1.491-1.702 2.531-3.231 2.531H13.202a3.338 3.338 0 0 1-3.23-2.53L5.731 4.016a1.148 1.148 0 0 0-1.111-.867H1.077C.487 3.15 0 2.664 0 2.075 0 1.485.486 1 1.077 1h3.544a3.339 3.339 0 0 1 3.231 2.531l.66 2.566zm1.112 3.607c.105-.347 0-.694-.208-.971a1.153 1.153 0 0 0-.903-.451H9.068l3.023 12.102c.139.52.59.867 1.111.867h13.863c.521 0 .973-.347 1.112-.867zM10.32 28.394c0-1.977 1.633-3.606 3.613-3.606s3.613 1.63 3.613 3.606S15.912 32 13.932 32s-3.613-1.63-3.613-3.606zm2.188 0c0 .797.626 1.421 1.425 1.421.764 0 1.425-.658 1.425-1.421 0-.798-.626-1.422-1.425-1.422-.8 0-1.425.624-1.425 1.422zm16.99 0c0 1.976-1.633 3.606-3.613 3.606s-3.614-1.63-3.614-3.606c0-1.977 1.633-3.606 3.614-3.606 1.98 0 3.578 1.63 3.613 3.606zm-2.189 0c0-.798-.625-1.422-1.424-1.422-.8 0-1.425.624-1.425 1.422 0 .797.626 1.421 1.425 1.421.764 0 1.424-.658 1.424-1.421z"/>
      <path fill="none" stroke="#fff" stroke-miterlimit="20" stroke-width=".3"
            d="M29.67 6.097c1.008 0 1.981.486 2.606 1.283.66.798.869 1.838.626 2.809l-2.606 10.68c-.347 1.491-1.702 2.531-3.231 2.531H13.202a3.338 3.338 0 0 1-3.23-2.53L5.731 4.016a1.148 1.148 0 0 0-1.111-.867H1.077C.487 3.15 0 2.664 0 2.075 0 1.485.486 1 1.077 1h3.544a3.339 3.339 0 0 1 3.231 2.531l.66 2.566zm1.112 3.607c.105-.347 0-.694-.208-.971a1.153 1.153 0 0 0-.903-.451H9.068l3.023 12.102c.139.52.59.867 1.111.867h13.863c.521 0 .973-.347 1.112-.867zM10.32 28.394c0-1.977 1.633-3.606 3.613-3.606s3.613 1.63 3.613 3.606S15.912 32 13.932 32s-3.613-1.63-3.613-3.606zm2.188 0c0 .797.626 1.421 1.425 1.421.764 0 1.425-.658 1.425-1.421 0-.798-.626-1.422-1.425-1.422-.8 0-1.425.624-1.425 1.422zm16.99 0c0 1.976-1.633 3.606-3.613 3.606s-3.614-1.63-3.614-3.606c0-1.977 1.633-3.606 3.614-3.606 1.98 0 3.578 1.63 3.613 3.606zm-2.189 0c0-.798-.625-1.422-1.424-1.422-.8 0-1.425.624-1.425 1.422 0 .797.626 1.421 1.425 1.421.764 0 1.424-.658 1.424-1.421z"/>
    </g>
  </g>
</svg>
