<svg xmlns="http://www.w3.org/2000/svg" width="15" height="18" viewBox="0 0 15 18">
  <g>
    <g>
      <path fill="#67708d"
            d="M6.968 15.855V6.348c0-.29.24-.527.538-.527.297 0 .538.236.538.527v9.507c0 .29-.24.527-.538.527a.533.533 0 0 1-.538-.527zM3.796 6.377a.531.531 0 0 1 .508-.555.534.534 0 0 1 .566.498l.53 9.506a.531.531 0 0 1-.538.556.534.534 0 0 1-.537-.499zm5.829 9.45l.505-9.506a.534.534 0 0 1 .565-.5.532.532 0 0 1 .51.555l-.506 9.506a.533.533 0 0 1-.565.5.531.531 0 0 1-.51-.555zm5.328-11.804a.88.88 0 0 1-.125.804.918.918 0 0 1-.738.37h-.234l-.933 11.307c-.07.839-.796 1.496-1.654 1.496H3.92c-.858 0-1.584-.657-1.654-1.496L1.334 5.197H.91a.918.918 0 0 1-.738-.37.88.88 0 0 1-.125-.804l.405-1.191a1.13 1.13 0 0 1 1.074-.759h3.408V.986A.997.997 0 0 1 5.94 0h3.12a.997.997 0 0 1 1.006.986v1.087h3.408c.488 0 .92.305 1.074.759zM6.01 2.073h2.98V1.055H6.01zm6.766 3.124H2.413L3.34 16.42c.025.295.28.526.581.526h7.349a.582.582 0 0 0 .581-.526zm1.084-1.054l-.333-.977a.056.056 0 0 0-.053-.038H1.526a.056.056 0 0 0-.053.038l-.333.977z"/>
    </g>
  </g>
</svg>
