<svg width="19" height="18" viewBox="0 0 19 18" fill="none" xmlns="http://www.w3.org/2000/svg">
<g clip-path="url(#clip0)">
<path d="M17.9969 18V17.9992H18.0014V11.3977C18.0014 8.16823 17.3062 5.68048 13.5307 5.68048C11.7157 5.68048 10.4977 6.67648 10.0004 7.62073H9.94792V5.98198H6.36816V17.9992H10.0957V12.0487C10.0957 10.482 10.3927 8.96699 12.3329 8.96699C14.2447 8.96699 14.2732 10.755 14.2732 12.1492V18H17.9969Z" fill="white"/>
<path d="M0.298645 5.98273H4.03065V18H0.298645V5.98273Z" fill="white"/>
<path d="M2.16315 0C0.969898 0 0.00164795 0.96825 0.00164795 2.1615C0.00164795 3.35475 0.969898 4.34325 2.16315 4.34325C3.3564 4.34325 4.32465 3.35475 4.32465 2.1615C4.3239 0.96825 3.35565 0 2.16315 0V0Z" fill="white"/>
</g>
<defs>
<clipPath id="clip0">
<rect width="18" height="18" fill="white" transform="translate(0.00164795)"/>
</clipPath>
</defs>
</svg>
