<svg width="19" height="18" viewBox="0 0 19 18" fill="none" xmlns="http://www.w3.org/2000/svg">
<g clip-path="url(#clip0)">
<path d="M18.9967 3.41906C18.3273 3.71268 17.6141 3.90731 16.8705 4.00181C17.6355 3.54506 18.2193 2.82731 18.4938 1.96218C17.7806 2.38743 16.9931 2.68781 16.1538 2.85543C15.4766 2.13431 14.5113 1.68768 13.4583 1.68768C11.4153 1.68768 9.77058 3.34593 9.77058 5.37881C9.77058 5.67131 9.79533 5.95256 9.85608 6.22031C6.7882 6.07068 4.07358 4.60031 2.24995 2.36043C1.93158 2.91281 1.74483 3.54506 1.74483 4.22568C1.74483 5.50368 2.40295 6.63656 3.38395 7.29243C2.79108 7.28118 2.20945 7.10906 1.7167 6.83793C1.7167 6.84918 1.7167 6.86381 1.7167 6.87843C1.7167 8.67168 2.99583 10.1612 4.6732 10.5043C4.37283 10.5864 4.04545 10.6258 3.7057 10.6258C3.46945 10.6258 3.23095 10.6123 3.00708 10.5628C3.4852 12.0242 4.84195 13.0986 6.4552 13.1334C5.1997 14.1156 3.60558 14.7073 1.87983 14.7073C1.5772 14.7073 1.28695 14.6938 0.996704 14.6567C2.63133 15.7108 4.56858 16.3127 6.6577 16.3127C13.4482 16.3127 17.1607 10.6877 17.1607 5.81193C17.1607 5.64881 17.1551 5.49131 17.1472 5.33493C17.8796 4.81518 18.495 4.16606 18.9967 3.41906Z" fill="white"/>
</g>
<defs>
<clipPath id="clip0">
<rect width="18" height="18" fill="white" transform="translate(0.996704 0.000183105)"/>
</clipPath>
</defs>
</svg>
